<svg width="73" height="72" viewBox="0 0 73 72" fill="none" xmlns="http://www.w3.org/2000/svg">
<g clip-path="url(#clip0_57_113)">
<path d="M13 33H31C31.7956 33 32.5587 32.6839 33.1213 32.1213C33.6839 31.5587 34 30.7956 34 30V12C34 11.2044 33.6839 10.4413 33.1213 9.87868C32.5587 9.31607 31.7956 9 31 9H13C12.2044 9 11.4413 9.31607 10.8787 9.87868C10.3161 10.4413 10 11.2044 10 12V30C10 30.7956 10.3161 31.5587 10.8787 32.1213C11.4413 32.6839 12.2044 33 13 33ZM16 15H28V27H16V15ZM61 9H43C42.2043 9 41.4413 9.31607 40.8787 9.87868C40.3161 10.4413 40 11.2044 40 12V30C40 30.7956 40.3161 31.5587 40.8787 32.1213C41.4413 32.6839 42.2043 33 43 33H61C61.7957 33 62.5587 32.6839 63.1213 32.1213C63.6839 31.5587 64 30.7956 64 30V12C64 11.2044 63.6839 10.4413 63.1213 9.87868C62.5587 9.31607 61.7957 9 61 9ZM58 27H46V15H58V27ZM31 63C31.7956 63 32.5587 62.6839 33.1213 62.1213C33.6839 61.5587 34 60.7957 34 60V42C34 41.2043 33.6839 40.4413 33.1213 39.8787C32.5587 39.3161 31.7956 39 31 39H13C12.2044 39 11.4413 39.3161 10.8787 39.8787C10.3161 40.4413 10 41.2043 10 42V60C10 60.7957 10.3161 61.5587 10.8787 62.1213C11.4413 62.6839 12.2044 63 13 63H31ZM16 45H28V57H16V45ZM55 42H49V48H43V54H49V60H55V54H61V48H55V42Z" fill="#2264D1"/>
</g>
<defs>
<clipPath id="clip0_57_113">
<rect width="72" height="72" fill="white" transform="translate(0.5)"/>
</clipPath>
</defs>
</svg>
