<svg width="73" height="72" viewBox="0 0 73 72" fill="none" xmlns="http://www.w3.org/2000/svg">
<path d="M62.8419 33.3431L49.3419 46.8431C48.9197 47.2653 48.3471 47.5025 47.75 47.5025C47.1529 47.5025 46.5803 47.2653 46.1581 46.8431C45.7359 46.4209 45.4987 45.8483 45.4987 45.2513C45.4987 44.6542 45.7359 44.0816 46.1581 43.6594L55.8191 34.0013H44.6562C39.1681 33.9997 33.8351 35.8224 29.4959 39.1826C25.1567 42.5427 22.0573 47.2499 20.6853 52.5638C20.5361 53.1418 20.1634 53.637 19.6491 53.9403C19.1349 54.2436 18.5212 54.3301 17.9431 54.1809C17.365 54.0318 16.8699 53.659 16.5666 53.1448C16.2633 52.6305 16.1768 52.0168 16.3259 51.4388C17.9449 45.1571 21.6071 39.5924 26.7361 35.6208C31.8651 31.6492 38.1693 29.4963 44.6562 29.5013H55.8247L46.1581 19.8431C45.9491 19.6341 45.7833 19.3859 45.6701 19.1128C45.557 18.8396 45.4987 18.5469 45.4987 18.2513C45.4987 17.9556 45.557 17.6629 45.6701 17.3897C45.7833 17.1166 45.9491 16.8684 46.1581 16.6594C46.5803 16.2372 47.1529 16 47.75 16C48.0456 16 48.3384 16.0582 48.6115 16.1714C48.8847 16.2845 49.1328 16.4503 49.3419 16.6594L62.8419 30.1594C63.0511 30.3683 63.217 30.6165 63.3303 30.8896C63.4435 31.1628 63.5018 31.4556 63.5018 31.7513C63.5018 32.0469 63.4435 32.3397 63.3303 32.6129C63.217 32.886 63.0511 33.1342 62.8419 33.3431ZM52.25 61.0013H9.5V27.2513C9.5 26.6545 9.26295 26.0822 8.84099 25.6603C8.41903 25.2383 7.84674 25.0013 7.25 25.0013C6.65326 25.0013 6.08097 25.2383 5.65901 25.6603C5.23705 26.0822 5 26.6545 5 27.2513V61.0013C5 62.1947 5.47411 63.3393 6.31802 64.1832C7.16193 65.0271 8.30653 65.5013 9.5 65.5013H52.25C52.8467 65.5013 53.419 65.2642 53.841 64.8422C54.2629 64.4203 54.5 63.848 54.5 63.2513C54.5 62.6545 54.2629 62.0822 53.841 61.6603C53.419 61.2383 52.8467 61.0013 52.25 61.0013Z" fill="#2264D1"/>
</svg>
