<svg width="73" height="72" viewBox="0 0 73 72" fill="none" xmlns="http://www.w3.org/2000/svg">
<g clip-path="url(#clip0_57_101)">
<path d="M66.0978 57.9116C63.8451 55.6571 61.2129 53.817 58.3219 52.4757C62.3988 49.1728 64.9998 44.133 64.9998 38.4811C64.9998 28.5094 56.6839 20.3287 46.7119 20.4817C36.893 20.6347 28.9821 28.6354 28.9821 38.4811C28.9821 44.133 31.592 49.1728 35.66 52.4757C32.7684 53.8161 30.136 55.6562 27.8841 57.9116C22.9701 62.8344 20.1801 69.3322 20.0001 76.262C19.9977 76.3581 20.0146 76.4536 20.0497 76.5431C20.0848 76.6325 20.1374 76.714 20.2045 76.7828C20.2716 76.8516 20.3518 76.9062 20.4404 76.9435C20.5289 76.9808 20.624 77 20.7201 77H25.7601C26.1471 77 26.4711 76.694 26.4801 76.307C26.6511 71.0872 28.7661 66.2003 32.483 62.4924C34.3851 60.5803 36.6475 59.0644 39.1393 58.0325C41.6311 57.0006 44.3029 56.4731 46.9999 56.4806C52.4809 56.4806 57.6379 58.6135 61.5169 62.4924C65.2248 66.2003 67.3398 71.0872 67.5198 76.307C67.5288 76.694 67.8528 77 68.2398 77H73.2798C73.3759 77 73.471 76.9808 73.5595 76.9435C73.6481 76.9062 73.7283 76.8516 73.7954 76.7828C73.8625 76.714 73.9151 76.6325 73.9502 76.5431C73.9853 76.4536 74.0022 76.3581 73.9998 76.262C73.8198 69.3322 71.0298 62.8344 66.0978 57.9116ZM46.9999 50.0008C43.922 50.0008 41.024 48.8038 38.855 46.6259C37.7665 45.546 36.9066 44.2579 36.3268 42.8384C35.7469 41.419 35.459 39.8973 35.48 38.3641C35.507 35.4122 36.686 32.5593 38.747 30.4444C40.907 28.2304 43.796 26.9975 46.8829 26.9615C49.9339 26.9345 52.8949 28.1224 55.0729 30.2554C57.3049 32.4423 58.5289 35.3672 58.5289 38.4811C58.5289 41.559 57.3319 44.448 55.1539 46.6259C54.0854 47.6995 52.8145 48.5506 51.4149 49.1299C50.0153 49.7092 48.5147 50.0052 46.9999 50.0008ZM24.4551 40.8571C24.3741 40.0741 24.3291 39.2821 24.3291 38.4811C24.3291 37.0502 24.4641 35.6552 24.7161 34.2963C24.7791 33.9723 24.6081 33.6393 24.3111 33.5043C23.0871 32.9553 21.9621 32.1993 20.9901 31.2453C19.8448 30.1348 18.9435 28.7978 18.3438 27.3195C17.7441 25.8412 17.4592 24.2542 17.5071 22.6596C17.5881 19.7707 18.7491 17.0258 20.7741 14.9558C22.9971 12.6789 25.9851 11.4369 29.1621 11.4729C32.033 11.4999 34.805 12.6069 36.902 14.5688C37.613 15.2348 38.225 15.9728 38.738 16.7648C38.918 17.0438 39.269 17.1608 39.575 17.0528C41.159 16.5038 42.833 16.1168 44.552 15.9368C45.056 15.8828 45.344 15.3428 45.119 14.8928C42.194 9.10599 36.218 5.11011 29.3061 5.00211C19.3251 4.84912 11.0092 13.0299 11.0092 22.9926C11.0092 28.6444 13.6102 33.6843 17.6871 36.9872C14.8251 38.3101 12.1882 40.1371 9.90218 42.423C4.97021 47.3459 2.18022 53.8437 2.00023 60.7825C1.99782 60.8785 2.01467 60.9741 2.04978 61.0635C2.08488 61.153 2.13754 61.2345 2.20464 61.3033C2.27173 61.372 2.35192 61.4267 2.44047 61.464C2.52902 61.5013 2.62414 61.5205 2.72022 61.5205H7.76919C8.15619 61.5205 8.48019 61.2145 8.48919 60.8275C8.66018 55.6076 10.7752 50.7208 14.4921 47.0129C17.1381 44.367 20.3781 42.531 23.9151 41.64C24.2661 41.55 24.5001 41.2171 24.4551 40.8571Z" fill="#2264D1"/>
</g>
<defs>
<clipPath id="clip0_57_101">
<rect width="72" height="72" fill="white" transform="translate(0.5)"/>
</clipPath>
</defs>
</svg>
